<svg width="24" height="24" viewBox="0 0 24 24" fill="none" xmlns="http://www.w3.org/2000/svg">
  <path d="M10.5505 5.06614C10.7538 4.15106 11.5654 3.5 12.5028 3.5H13.2941C14.2315 3.5 15.0432 4.15106 15.2465 5.06614L15.4495 5.97935C16.1106 6.23819 16.7227 6.59467 17.2682 7.03105L18.1624 6.74961C19.0565 6.46818 20.0262 6.84554 20.4949 7.65735L20.8905 8.34264C21.3592 9.15445 21.2012 10.1829 20.5104 10.8165L19.8202 11.4496C19.8718 11.7922 19.8985 12.143 19.8985 12.5C19.8985 12.857 19.8718 13.2078 19.8202 13.5504L20.5104 14.1835C21.2012 14.8171 21.3592 15.8455 20.8905 16.6574L20.4949 17.3426C20.0262 18.1545 19.0565 18.5318 18.1624 18.2504L17.2682 17.9689C16.7227 18.4053 16.1106 18.7618 15.4495 19.0206L15.2465 19.9339C15.0432 20.8489 14.2315 21.5 13.2941 21.5H12.5028C11.5654 21.5 10.7538 20.8489 10.5505 19.9339L10.3475 19.0206C9.68639 18.7618 9.07423 18.4053 8.52878 17.9689L7.63458 18.2504C6.74043 18.5318 5.77078 18.1545 5.30208 17.3426L4.90642 16.6573C4.43772 15.8455 4.59575 14.8171 5.28655 14.1835L5.97677 13.5504C5.92521 13.2077 5.89849 12.857 5.89849 12.5C5.89849 12.143 5.92522 11.7922 5.97677 11.4496L5.28656 10.8165C4.59576 10.1829 4.43773 9.15446 4.90643 8.34265L5.30209 7.65735C5.77079 6.84554 6.74044 6.46818 7.63459 6.74962L8.52879 7.03106C9.07424 6.59467 9.6864 6.23819 10.3475 5.97935L10.5505 5.06614Z" stroke="currentColor" stroke-width="2" stroke-linecap="round" stroke-linejoin="round"/>
  <path d="M13.8985 12.5C13.8985 13.0523 13.4508 13.5 12.8985 13.5C12.3462 13.5 11.8985 13.0523 11.8985 12.5C11.8985 11.9477 12.3462 11.5 12.8985 11.5C13.4508 11.5 13.8985 11.9477 13.8985 12.5Z" stroke="currentColor" stroke-width="2" stroke-linecap="round" stroke-linejoin="round"/>
</svg>
